<!--
  The 529 Network cap emblem.

  Traced from the official logo supplied by the Network (1347x239 JPEG) and
  verified at 96.6% pixel overlap against the source. The white swooshes are
  holes in the path rather than painted shapes, so the mark reads correctly on
  any background: on the dark rail the rail colour shows through them.

  Uses currentColor, so CSS decides whether it is white or green.
-->
<svg xmlns="http://www.w3.org/2000/svg" viewBox="0 0 100 72.42" role="img"
     aria-label="The 529 Network">
  <path fill="currentColor" fill-rule="evenodd" d="M49.85,71.97 C39.42,69.67 31.41,61.56 29.27,51.15 C28.64,48.10 28.57,38.18 29.18,38.18 C29.40,38.18 29.71,38.30 29.86,38.45 C30.02,38.60 31.99,39.78 34.24,41.07 C36.49,42.36 40.04,44.40 42.12,45.60 C44.20,46.79 48.05,49.01 50.68,50.52 L55.45,53.26 L57.80,51.91 C59.09,51.16 61.52,49.77 63.18,48.81 C64.85,47.85 68.05,46.00 70.30,44.69 C77.58,40.47 81.65,38.18 81.89,38.18 C82.23,38.18 82.17,47.71 81.81,50.00 C80.08,60.93 71.73,69.69 60.85,71.98 C58.26,72.53 52.33,72.52 49.85,71.97 Z M45.61,46.34 C40.44,43.33 33.14,39.11 29.39,36.95 L22.56,33.02 L19.08,34.54 C17.17,35.37 14.61,36.27 13.39,36.54 C10.49,37.19 6.07,37.00 3.30,36.10 C1.30,35.46 1.29,35.45 1.12,34.17 C1.03,33.47 0.98,32.86 1.02,32.82 C1.06,32.78 2.11,33.10 3.35,33.54 C4.95,34.10 6.45,34.37 8.53,34.48 C13.59,34.73 16.86,33.65 28.18,28.00 C36.45,23.87 39.26,22.68 42.32,21.99 C44.35,21.53 44.36,21.52 42.75,21.68 C40.16,21.95 35.97,23.43 28.55,26.72 C16.63,31.99 11.94,33.20 6.85,32.32 C5.41,32.07 3.34,31.45 2.26,30.95 C0.48,30.11 0.30,29.95 0.30,29.11 C0.30,28.21 0.95,27.81 1.34,28.45 C1.44,28.60 2.50,29.08 3.71,29.52 C9.73,31.68 14.34,31.05 25.78,26.50 C37.41,21.88 39.54,21.25 44.70,20.91 L48.33,20.66 L44.24,20.75 C39.32,20.84 37.57,21.27 27.46,24.85 C18.06,28.18 15.05,28.90 10.61,28.89 C7.66,28.88 6.78,28.76 4.93,28.11 C3.72,27.68 2.12,26.98 1.37,26.53 C0.13,25.81 0.00,25.62 0.00,24.61 C0.01,23.32 0.41,22.46 0.74,23.01 C1.10,23.59 4.95,25.39 7.00,25.92 C9.27,26.52 15.36,26.37 18.18,25.65 C19.79,25.24 19.71,25.23 15.76,25.38 C13.04,25.48 11.77,25.43 11.97,25.23 C12.14,25.06 17.18,22.09 23.18,18.63 C29.18,15.16 38.88,9.56 44.74,6.17 L55.40,0.01 L77.61,12.84 C89.82,19.90 99.86,25.80 99.91,25.96 C100.02,26.26 56.31,51.62 55.49,51.73 C55.22,51.77 50.77,49.34 45.61,46.34 Z M47.81,21.30 C47.35,21.23 46.53,21.23 45.99,21.30 C45.45,21.36 45.82,21.42 46.82,21.42 C47.82,21.42 48.26,21.37 47.81,21.30 Z"/>
</svg>
